<?xml version='1.0' encoding='UTF-8'?>
<svg x="0px" y="0px" viewBox="0 0 32 32" version="1.1" xmlns="http://www.w3.org/2000/svg" xmlns:xlink="http://www.w3.org/1999/xlink" enable-background="new 0 0 32 32" xml:space="preserve" id="Layer_1">
  <path d="M29.7,4c-0.3,0-0.5,0.1-0.8,0.3L17,12c0.5-0.5,1.9,0.3,3.3,1.7  c1.4,1.4,2.2,2.8,1.7,3.3l8.7-10.9C30.9,5.9,31,5.6,31,5.3C31,4.6,30.4,4,29.7,4z" opacity="0.8" />
  <path d="M17,12l-3.1,6l1,3.1L22,17c0.5-0.5-0.3-1.9-1.7-3.3C18.9,12.3,17.5,11.5,17,12z" opacity="0.4" />
  <path d="M0,27.7c0,0,11.7,1.7,16.7-3.6c4.3-4.4,0.7-7.7,0.7-7.7s-3.5-3.1-7.2-0.3S7.3,24.8,0,27.7z" fill="#337CB8" />
</svg>