<?xml version='1.0' encoding='UTF-8'?>
<svg x="0px" y="0px" viewBox="0 0 32 32" version="1.1" xmlns="http://www.w3.org/2000/svg" xmlns:xlink="http://www.w3.org/1999/xlink" enable-background="new 0 0 32 32" xml:space="preserve" id="Layer_1">
  <path d="M16,27l-3,3L0,17l3-3L16,27z" opacity="0.4" />
  <path d="M28,15L16,27L3,14L15,2L28,15z" opacity="0.3" />
  <path d="M17,10c1.7,0,3,1.3,3,3s-1.3,3-3,3s-3-1.3-3-3S15.3,10,17,10z" fill="#FFFFFF" />
  <path d="M7,1l12,12l-2,2L5,3L7,1z" fill="#FFFFFF" />
  <path d="M32,26.6L29,16l-3,10.6c0,0.1,0,0.2,0,0.4c0,1.7,1.3,3,3,3s3-1.3,3-3C32,26.9,32,26.8,32,26.6z" fill="#D04D2F" />
  <path d="M7,1l12,12l-2,2L5,3L7,1z" opacity="0.6" />
</svg>