<?xml version='1.0' encoding='UTF-8'?>
<svg x="0px" y="0px" viewBox="0 0 32 32" version="1.1" xmlns="http://www.w3.org/2000/svg" xmlns:xlink="http://www.w3.org/1999/xlink" xml:space="preserve" id="Layer_1" style="enable-background:new 0 0 32 32">
  <style type="text/css">
	.Black{fill:#727272;}
	.Blue{fill:#1177D7;}
	.Green{fill:#039C23;}
	.Yellow{fill:#FFB115;}
	.Red{fill:#D11C1C;}
	.White{fill:#FFFFFF;}
	.st0{opacity:0.5;}
	.st1{opacity:0.75;}
</style>
  <g id="GaugeStyleRightQuarterCircular">
    <path d="M21.7,9.7l-6,6c0.2,0.4,0.3,0.8,0.3,1.3c0,1.7-1.3,3-3,3s-3-1.3-3-3s1.3-3,3-3c0.5,0,0.9,0.1,1.3,0.3l6-6   L21.7,9.7z M28,17v7H6V2h7C21.3,2,28,8.7,28,17z M26,17c0-7.2-5.8-13-13-13H8v18h18V17z" class="Black" />
    <path d="M22.6,11.6l-3,3c0.3,0.7,0.4,1.5,0.4,2.4v3h4v-3C24,15,23.5,13.2,22.6,11.6z" class="Red" />
    <path d="M13,6h-3v4h3c0.8,0,1.6,0.1,2.3,0.4l3-3C16.8,6.5,14.9,6,13,6z" class="Blue" />
  </g>
</svg>