<svg enable-background="new 0 0 24 24" height="512" viewBox="0 0 24 24" width="512" xmlns="http://www.w3.org/2000/svg"><g id="color"><g><circle cx="12" cy="12" fill="#ffc107" r="11"/></g></g><g id="regular"><g><path d="m11.5 17c-.414 0-.75-.336-.75-.75v-6.5c0-1.517 1.233-2.75 2.75-2.75s2.75 1.233 2.75 2.75c0 .414-.336.75-.75.75s-.75-.336-.75-.75c0-.689-.561-1.25-1.25-1.25s-1.25.561-1.25 1.25v6.5c0 .414-.336.75-.75.75z"/></g><g><path d="m14.25 17h-4.5c-.414 0-.75-.336-.75-.75s.336-.75.75-.75h4.5c.414 0 .75.336.75.75s-.336.75-.75.75z"/></g><g><path d="m13.25 13.25h-3.5c-.414 0-.75-.336-.75-.75s.336-.75.75-.75h3.5c.414 0 .75.336.75.75s-.336.75-.75.75z"/></g><g><path d="m12 23c-6.065 0-11-4.935-11-11s4.935-11 11-11 11 4.935 11 11-4.935 11-11 11zm0-20.5c-5.238 0-9.5 4.262-9.5 9.5s4.262 9.5 9.5 9.5 9.5-4.262 9.5-9.5-4.262-9.5-9.5-9.5z"/></g></g></svg>