<svg enable-background="new 0 0 24 24" height="512" viewBox="0 0 24 24" width="512" xmlns="http://www.w3.org/2000/svg"><g id="color"><g><circle cx="12" cy="12" fill="#ffc107" r="11"/></g></g><g id="regular"><g><path d="m10.75 17c-.178 0-.351-.062-.487-.18-.167-.142-.263-.35-.263-.57v-8.5c0-.414.336-.75.75-.75s.75.336.75.75v7.557c1.208-.343 3.25-1.164 3.25-2.807 0-.414.336-.75.75-.75s.75.336.75.75c0 3.6-5.163 4.456-5.383 4.491-.039.006-.078.009-.117.009z"/></g><g><path d="m8 11.75c-.298 0-.579-.178-.696-.472-.154-.384.033-.821.418-.975l5-2c.383-.153.821.033.975.418.154.384-.033.821-.418.975l-5 2c-.091.037-.186.054-.279.054z"/></g><g><path d="m8 14.25c-.298 0-.579-.178-.696-.472-.154-.385.033-.821.418-.975l5-2c.383-.153.821.033.975.418.154.384-.033.821-.418.975l-5 2c-.091.036-.186.054-.279.054z"/></g><g><path d="m12 23c-6.065 0-11-4.935-11-11s4.935-11 11-11 11 4.935 11 11-4.935 11-11 11zm0-20.5c-5.238 0-9.5 4.262-9.5 9.5s4.262 9.5 9.5 9.5 9.5-4.262 9.5-9.5-4.262-9.5-9.5-9.5z"/></g></g></svg>